<svg width="22" height="22" fill="none" xmlns="http://www.w3.org/2000/svg"><path d="M16.0448 0H5.9552C2.6715 0 0 2.6715 0 5.9552V16.045C0 19.3286 2.6715 22 5.9552 22H16.045C19.3286 22 22 19.3286 22 16.045V5.9552C22 2.6715 19.3286 0 16.0448 0ZM11 17.0155c-3.317 0-6.0155-2.6985-6.0155-6.0155S7.683 4.9845 11 4.9845 17.0155 7.683 17.0155 11 14.317 17.0155 11 17.0155Zm6.1593-10.6123c-.9802 0-1.7775-.7973-1.7775-1.7775 0-.9802.7973-1.7777 1.7775-1.7777.9802 0 1.7777.7975 1.7777 1.7777 0 .9802-.7975 1.7775-1.7777 1.7775Z" fill="#BFBFC7"/><path d="M10.9999 7.3332c-2.0217 0-3.6667 1.6449-3.6667 3.6667 0 2.0217 1.645 3.6666 3.6667 3.6666 2.0218 0 3.6666-1.6449 3.6666-3.6666 0-2.0218-1.6448-3.6667-3.6666-3.6667ZM17.1591 4.1377a.4884.4884 0 0 0-.4877.4878c0 .2689.2189.4877.4877.4877a.4884.4884 0 0 0 .488-.4877.4884.4884 0 0 0-.488-.4878Z" fill="#BFBFC7"/></svg>