<svg width="28" height="28" fill="none" xmlns="http://www.w3.org/2000/svg"><path fill-rule="evenodd" clip-rule="evenodd" d="M14 0C6.2618 0 0 6.2583 0 14c0 2.9196.8904 5.6202 2.4719 7.9406a.7008.7008 0 0 1 .0875.6016L1.1375 27.3l4.6594-1.6078a.7002.7002 0 0 1 .6015.0765C8.581 27.1848 11.1935 28 14 28c7.7419 0 14-6.2581 14-14 0-7.742-6.2581-14-14-14ZM8.2688 6.1031l2.5484 4.211-1.061 1.05a.7.7 0 0 0-.1093.8422c1.619 2.8037 3.5373 4.9849 6.2234 6.1687a.6994.6994 0 0 0 .4102.0488.6993.6993 0 0 0 .3664-.191l1.1265-1.1266 4.1125 2.5704c-.4553 1.0249-1.049 1.6351-1.7281 1.9906-.7866.4119-1.7473.4898-2.8437.2625-2.1928-.4547-4.8415-2.1781-7-4.386-2.1585-2.2078-3.8289-4.8925-4.2547-7.0765-.213-1.092-.1189-2.0325.2843-2.7781.3472-.642.937-1.1917 1.925-1.586Z" fill="#0B7572"/></svg>