<svg width="44" height="47" fill="none" xmlns="http://www.w3.org/2000/svg"><path fill-rule="evenodd" clip-rule="evenodd" d="M42.219 13.8408H1.79c-.4882 0-.9402.1989-1.2657.5244C.199 14.6906 0 15.1336 0 15.6308v28.8753c0 .4882.1989.9402.5243 1.2657.3255.3254.7685.5243 1.2657.5243h40.429c.4882 0 .9402-.1989 1.2567-.5243.3254-.3255.5243-.7685.5243-1.2657V15.6308c0-.4882-.1989-.9402-.5243-1.2656-.3255-.3255-.7685-.5244-1.2567-.5244ZM22.8453 32.6179v9.2755c0 .4611-.3797.8408-.8408.8408-.461 0-.8407-.3797-.8407-.8408v-9.2755c-.8589-.3345-1.4646-1.1662-1.4646-2.1426 0-1.2747 1.0306-2.3053 2.3053-2.3053s2.3053 1.0306 2.3053 2.3053c0 .9764-.6057 1.8081-1.4645 2.1426Z" fill="#0B7572"/><path fill-rule="evenodd" clip-rule="evenodd" d="M39.9498 17.4029c-.1447-4.7372-2.1245-9.0133-5.2525-12.1413C31.4517 2.016 26.9586 0 22.0044 0S12.5571 2.007 9.3116 5.2616c-3.128 3.128-5.1079 7.4041-5.2525 12.1413h35.8907Zm-3.8061-3.2998c-.6599-2.4409-1.9527-4.683-3.7789-6.5-2.7573-2.7574-6.4549-4.2943-10.3604-4.2943S14.4014 4.8457 11.644 7.603c-1.8261 1.8262-3.119 4.0592-3.7789 6.5001h28.2786Z" fill="#0B7572"/></svg>