<svg width="145" height="52" fill="none" xmlns="http://www.w3.org/2000/svg"><path fill-rule="evenodd" clip-rule="evenodd" d="M9.8704 0 7.4012 6.7634H41.618L44.087 0H9.8704ZM6.1659 10.1436l-2.4691 6.7619h34.2166l2.4691-6.7619H6.1659ZM2.4691 20.2872 0 27.0491h34.2166l2.4676-6.7619H2.4692Z" fill="#009FDF"/><mask id="a" style="mask-type:alpha" maskUnits="userSpaceOnUse" x="51" y="10" width="94" height="42"><path d="M51.3359 51.7042H145V10.2739H51.3359v41.4303Z" fill="#fff"/></mask><g mask="url(#a)"><path fill-rule="evenodd" clip-rule="evenodd" d="M72.7425 29.6268v.1427c1.5637.5739 3.0574 1.5776 3.84 2.2221 2.4179 2.0073 3.4853 4.659 3.4853 8.0996 0 5.6643-2.9874 9.7494-7.8948 11.04-1.4937.4297-3.0574.5739-5.9748.5739H51.3359V10.2739h13.157c2.7027 0 4.5511.1427 6.1864.5724 4.7658 1.2906 7.8948 4.5885 7.8948 9.8199 0 2.7961-.9958 5.1625-2.6311 6.7385-.711.7166-1.7068 1.5776-3.2005 2.2221Zm-13.157 4.3721v10.8956h5.69c1.7054 0 3.2706-.1427 4.4096-1.2184 1.1374-1.0758 1.6353-2.437 1.6353-4.2294 0-1.3612-.3564-2.6518-1.0674-3.5833-1.209-1.5054-2.7027-1.8645-5.2622-1.8645h-5.4053Zm-.0716-7.1682h4.6227c1.4221 0 2.1332 0 2.8443-.2148 1.9215-.574 3.1305-2.2927 3.1305-4.6591 0-2.7945-1.2805-4.0145-3.1305-4.5869-.7827-.2148-1.5638-.287-3.129-.287h-4.338v9.7478Zm32.9283 24.8744V17.2256H80.5657v-6.9517h33.0003l-2.347 6.9517h-10.527v34.4795h-8.2498Zm23.6828 0V10.2739h26.742l-2.346 6.9517h-16.216v9.1754h6.614c5.334 0 8.108 1.2907 10.028 2.9388 1.494 1.2906 4.053 4.1572 4.053 9.8215 0 5.5905-2.631 8.672-4.836 10.2496-2.559 1.7908-5.262 2.2942-10.739 2.2942h-13.3Zm8.18-6.9533h6.188c2.346 0 3.768-.5739 4.764-1.8645.498-.6445 1.209-1.7925 1.209-3.9424 0-2.15-.711-3.6554-2.133-4.7312-.853-.6445-1.992-1.0021-3.912-1.0021h-6.116v11.5402Z" fill="#0A2973"/></g></svg>