<svg width="150" height="72" fill="none" xmlns="http://www.w3.org/2000/svg"><path d="M46.2565 47.0737h9.5046v3.1056h-4.5214v21.8206h-4.9832V47.0737ZM61.3962 62.6424l.854-12.4631h.286l.8541 12.4631h-1.9941Zm-5.5185 9.3575h4.879l.4617-6.6197h2.3496l.4638 6.6197h4.877l-2.5989-24.9262h-7.8334l-2.5988 24.9262ZM76.0454 63.2758v4.6992c0 .6333.4904.8172.7764.8172.4699 0 .7968-.3882.7968-.8172v-5.8025c0-.7764-.143-1.6345-2.0022-1.6345h-2.0228v-2.7378h2.1045c1.4097 0 1.9205-.3269 1.9205-1.8593v-4.9444c0-.429-.3269-.8172-.7968-.8172-.286 0-.7764.1635-.7764.8172v4.0659h-4.9852v-3.5346c0-1.7367.2043-4.4541 3.698-4.4541h4.1272c3.4937 0 3.7185 2.7174 3.7185 4.4541v3.9841c0 2.7173-1.9002 3.4528-3.3916 3.3916v.2451c3.3507-.0817 3.3916 2.4927 3.3916 3.3712v5.0261c0 1.7571-.2248 4.454-3.7185 4.454h-4.1272c-3.4937 0-3.698-2.6969-3.698-4.454v-4.2701h4.9852ZM85.8729 47.0737h11.5437v24.9262h-4.9852V50.1793h-1.5732v21.8206h-4.9853V47.0737ZM105.671 60.7831V50.1793h.654c.531 0 .919.4495.919 1.2463v8.1112c0 .7969-.388 1.2463-.919 1.2463h-.654Zm-4.985 11.2168h4.985v-8.479h2.86c3.474 0 3.698-2.6969 3.698-4.454v-7.5391c0-1.7367-.224-4.4541-3.698-4.4541h-7.845v24.9262ZM122.057 67.975c0 .429-.327.8172-.797.8172-.286 0-.776-.1839-.776-.8172V50.9965c0-.6537.49-.8172.776-.8172.47 0 .797.3882.797.8172V67.975Zm-6.559-.4291c0 1.7571.225 4.454 3.698 4.454h4.148c3.473 0 3.698-2.6969 3.698-4.454V51.5278c0-1.7367-.225-4.4541-3.698-4.4541h-4.148c-3.473 0-3.698 2.7174-3.698 4.4541v16.0181ZM143.264 47.0737h6.497v24.9262h-4.985V56.37h-.184l-2.574 15.6299h-3.984L135.48 56.37h-.184v15.6299h-4.985V47.0737h6.476l3.249 17.5301 3.228-17.5301ZM39.7964 12.9943C38.2702 6.3133 34.4455.8785 33.9183 0c-.8336 1.2463-3.884 6.0477-5.4347 11.3598-1.6937 5.9455-1.943 11.2168-1.3587 16.3859.5803 5.1895 2.7726 10.5221 2.7726 10.5221 1.1645 2.7787 2.9094 5.7821 4.0454 7.2531 1.6651-2.1657 5.4919-8.622 6.6851-17.0397.664-4.6992.6926-8.8059-.8316-15.4869Zm-5.8781 30.8513c-.7498-1.4098-1.9144-4.0863-2.0247-8.2543-.0286-4.0045 1.5793-7.4574 2.0493-8.1725.4188.7151 1.804 3.7185 1.9695 7.8252.1124 4.0045-1.2197 7.1714-1.9941 8.6016Zm5.4348-19.5119c-.0572 2.5539-.3617 5.2508-.7499 6.8649.139-2.7786-.1941-6.681-.8315-9.7457-.6375-3.0443-2.4416-8.1521-3.882-10.5017-1.33 2.2474-2.9686 6.6606-3.8267 10.4812-.8622 3.8207-.8868 8.4586-.8868 9.8479-.2288-1.1646-.8009-5.353-.6395-9.5414.1349-3.4529.944-7.0284 1.3873-8.6629 1.6917-5.4551 3.6061-8.9489 3.9657-9.5005.3596.5516 2.7705 4.8626 4.0209 9.3779 1.2443 4.5154 1.4956 8.8468 1.4425 11.3803Z" fill="#0079C2"/><path d="M36.5067 47.0738h-11.603v7.7843c.0102 0 .0184-.0204.0286-.0204 2.7337-2.7378 7.1673-2.7378 9.9031 0 2.7337 2.7174 2.7337 7.151 0 9.8888-.0123.0204-.0245.0204-.0368.0408-.0143 0-.0286.0205-.0409.0409-2.7275 2.6969-6.2908 4.0454-9.854 4.0454-3.5795 0-7.1591-1.3485-9.8887-4.0863-4.8137-4.8013-5.3837-12.2588-1.7142-17.6935.4944-.7355 1.0645-1.4302 1.7142-2.084 2.7296-2.7378 6.3092-4.0863 9.8887-4.0863v-18.715C11.1494 22.1885 0 33.3235 0 47.0738c0 13.7503 11.1494 24.9058 24.9037 24.9058 7.1714 0 13.6318-3.0443 18.1757-7.8865V47.0738h-6.5727Z" fill="#0079C2"/></svg>