<svg width="47" height="50" fill="none" xmlns="http://www.w3.org/2000/svg"><path d="M38.2823 32.7221H8.6433A4.3337 4.3337 0 0 0 5.56 28.5555V8.4582a4.1667 4.1667 0 0 0 2.889-2.9028h13.8888a4.2924 4.2924 0 0 0 2.9028 2.9028v6.4861l-2.5972 2.6111-1.3889-1.3888a1.2209 1.2209 0 0 0-.8681-.3619 1.2222 1.2222 0 0 0-.868.3619 1.236 1.236 0 0 0 0 1.75l1.3889 1.3888-1.3889 1.3889a1.2364 1.2364 0 0 0-.2687 1.3487 1.236 1.236 0 0 0 .2687.4013 1.2209 1.2209 0 0 0 .868.3618 1.2223 1.2223 0 0 0 .8681-.3618l1.3889-1.3889 2.9583 2.9584a1.2236 1.2236 0 0 0 .8681.3618 1.2222 1.2222 0 0 0 .868-.3618l3.0695-2.9722 1.3889 1.3888a1.2354 1.2354 0 0 0 .8926.4266 1.2354 1.2354 0 0 0 .9197-.3648 1.2364 1.2364 0 0 0-.0762-1.8118l-1.3889-1.3888 1.3889-1.3889a1.2362 1.2362 0 0 0 0-1.75 1.222 1.222 0 0 0-1.7361 0l-1.3889 1.3889-2.5834-2.5973v-6.486A4.3193 4.3193 0 0 0 29.642 1.265a4.3197 4.3197 0 0 0-6.0427-.0645 4.3197 4.3197 0 0 0-1.1504 1.8826H8.56a4.3195 4.3195 0 1 0-5.4722 5.375v20.125a4.334 4.334 0 0 0-3.0833 4.1667v1.1111a.3472.3472 0 0 0 0 .1111v7.4167a8.6527 8.6527 0 0 0 8.6389 8.6111h29.6389a8.6388 8.6388 0 0 0 6.1086-14.7475 8.6388 8.6388 0 0 0-6.1086-2.5303Zm-9.7222-13.4305-2.0278 2.0972-2.0695-2.0972 2.0695-2.0834 2.0278 2.0834Zm9.7222 25.7639a3.7084 3.7084 0 1 1 3.6944-3.6945 3.6944 3.6944 0 0 1-3.6944 3.6945ZM4.9489 41.361a3.7081 3.7081 0 0 1 4.4284-3.6516 3.7083 3.7083 0 1 1-4.4284 3.6516Zm27.1528 0a3.708 3.708 0 0 1-4.4369 3.6361 3.708 3.708 0 0 1-2.6935-5.0648 3.708 3.708 0 0 1 3.436-2.2796 3.7085 3.7085 0 0 1 3.6944 3.7083Zm-9.875 0a3.709 3.709 0 0 1-.6249 2.0603 3.709 3.709 0 0 1-3.8069 1.5768 3.7086 3.7086 0 0 1-2.7026-5.0562 3.7082 3.7082 0 0 1 3.4261-2.2892c.9835 0 1.9267.3907 2.6222 1.0861a3.7086 3.7086 0 0 1 1.0861 2.6222Z" fill="#0B7572"/><path d="M8.6432 42.5977c.6827 0 1.2361-.5534 1.2361-1.2361s-.5534-1.2361-1.236-1.2361c-.6828 0-1.2362.5534-1.2362 1.2361s.5534 1.2361 1.2361 1.2361ZM18.5179 42.5977c.6826 0 1.2361-.5534 1.2361-1.2361s-.5535-1.2361-1.2361-1.2361c-.6827 0-1.2362.5534-1.2362 1.2361s.5535 1.2361 1.2362 1.2361ZM28.407 42.5977c.6827 0 1.2361-.5534 1.2361-1.2361s-.5534-1.2361-1.2361-1.2361-1.2361.5534-1.2361 1.2361.5534 1.2361 1.2361 1.2361ZM38.2818 42.5977c.6827 0 1.2361-.5534 1.2361-1.2361s-.5534-1.2361-1.2361-1.2361-1.2361.5534-1.2361 1.2361.5534 1.2361 1.2361 1.2361Z" fill="#0B7572"/></svg>