<svg width="28" height="28" fill="none" xmlns="http://www.w3.org/2000/svg"><path d="M27.0674 13.9091c0 7.4099-5.9516 13.4091-13.2837 13.4091S.5 21.319.5 13.9091C.5 6.4991 6.4516.5 13.7837.5s13.2837 5.9992 13.2837 13.4091Z" stroke="#fff"/><path fill-rule="evenodd" clip-rule="evenodd" d="M10.6594 6.048c.8454-.0393 1.115-.048 3.2685-.048s2.423.0095 3.2677.048 1.4213.1745 1.9258.3716a3.8968 3.8968 0 0 1 1.4039.9237 3.911 3.911 0 0 1 .9139 1.416c.196.509.3301 1.0909.369 1.9418.0389.8545.0476 1.1265.0476 3.2989 0 2.1731-.0094 2.4451-.0476 3.2982-.0382.8509-.173 1.4327-.369 1.9418a3.928 3.928 0 0 1-.9139 1.4175 3.8841 3.8841 0 0 1-1.4039.9221c-.5045.1979-1.0811.3331-1.9243.3724-.8462.0393-1.1157.048-3.2692.048s-2.4231-.0095-3.2685-.048c-.8432-.0385-1.4198-.1745-1.9243-.3724a3.886 3.886 0 0 1-1.4047-.9221 3.9257 3.9257 0 0 1-.9146-1.4168c-.1953-.5091-.3293-1.0909-.3682-1.9418C6.0086 16.4444 6 16.1724 6 14c0-2.1731.0094-2.4451.0476-3.2975.0382-.8523.173-1.4341.3682-1.9432a3.928 3.928 0 0 1 .9154-1.4167 3.883 3.883 0 0 1 1.4032-.923c.5045-.197 1.081-.3323 1.9243-.3716h.0007Zm6.4721 1.44c-.8361-.0386-1.0869-.0466-3.2036-.0466-2.1168 0-2.3676.008-3.2036.0466-.7733.0356-1.1928.1658-1.4724.2756-.3697.1455-.6343.3178-.9117.5978a2.4837 2.4837 0 0 0-.5925.92c-.1088.2822-.2378.7055-.2731 1.4859-.0382.8436-.0461 1.0967-.0461 3.2327s.0079 2.3891.046 3.2327c.0354.7804.1644 1.2037.2732 1.4858.1269.347.3294.6619.5925.92.2558.2655.5679.4699.9117.5979.2796.1098.699.24 1.4724.2756.836.0385 1.0861.0465 3.2036.0465 2.1175 0 2.3675-.008 3.2036-.0465.7733-.0356 1.1928-.1658 1.4724-.2756.3697-.1455.6342-.3179.9117-.5979a2.4832 2.4832 0 0 0 .5924-.92c.1089-.2821.2379-.7054.2732-1.4858.0382-.8436.0461-1.0967.0461-3.2327s-.0079-2.3891-.0461-3.2327c-.0353-.7804-.1643-1.2037-.2732-1.4859-.1441-.373-.3149-.64-.5924-.92a2.4575 2.4575 0 0 0-.9117-.5978c-.2796-.1098-.6991-.24-1.4724-.2756Zm-4.2162 8.9782a2.6222 2.6222 0 0 0 1.7815.0907 2.6462 2.6462 0 0 0 1.4333-1.0716 2.6872 2.6872 0 0 0 .4328-1.7463 2.679 2.679 0 0 0-.7648-1.6263 2.6409 2.6409 0 0 0-.9792-.6253 2.6224 2.6224 0 0 0-2.2504.224 2.6547 2.6547 0 0 0-.8393.8063 2.6827 2.6827 0 0 0-.4171 1.091 2.6916 2.6916 0 0 0 .085 1.1662c.1135.3776.3084.7252.571 1.0176.2625.2925.586.5225.9472.6737Zm-1.8688-5.3738a4.071 4.071 0 0 1 1.322-.8914 4.043 4.043 0 0 1 1.5594-.313 4.043 4.043 0 0 1 1.5594.313 4.071 4.071 0 0 1 1.322.8914c.3784.3818.6786.8351.8834 1.334a4.146 4.146 0 0 1 0 3.1472 4.1144 4.1144 0 0 1-.8834 1.334c-.7642.7712-1.8007 1.2044-2.8814 1.2044-1.0808 0-2.1172-.4332-2.8814-1.2044-.7642-.7711-1.1936-1.817-1.1936-2.9076s.4294-2.1365 1.1936-2.9076Zm7.8601-.592a.9734.9734 0 0 0 .2208-.3157.9807.9807 0 0 0 .0109-.7572.9743.9743 0 0 0-.2115-.322.9633.9633 0 0 0-.3192-.2135.9557.9557 0 0 0-.7503.011.9645.9645 0 0 0-.3129.2228.9771.9771 0 0 0-.2625.6814.9763.9763 0 0 0 .2821.6734.9594.9594 0 0 0 .6673.2847.9588.9588 0 0 0 .6753-.2649Z" fill="#fff"/></svg>