<svg width="40" height="50" fill="none" xmlns="http://www.w3.org/2000/svg"><path fill-rule="evenodd" clip-rule="evenodd" d="M6.1677 36.7454h6.9025a.821.821 0 0 1 .8217.8217v6.9024a.8211.8211 0 0 1-.8217.8218H6.1677a.821.821 0 0 1-.8217-.8218v-6.9024a.821.821 0 0 1 .8217-.8217Zm27.4455-9.6383H20.9587a.821.821 0 0 1-.8217-.8217.821.821 0 0 1 .8217-.8218h12.6545a.8211.8211 0 0 1 .8217.8218.821.821 0 0 1-.8217.8217ZM14.4043 10.3827l-6.4578 6.4577c-.0483.058-.116.1064-.1837.145-.3963.2224-.8894.0967-1.1214-.2997l-1.9528-3.3835a.8238.8238 0 0 1 .2997-1.1214.8238.8238 0 0 1 1.1214.2997l1.4211 2.4651 5.7134-5.7133c.319-.319.841-.319 1.1601 0 .319.319.319.841 0 1.16v-.0096ZM10.1893 0H.8217A.821.821 0 0 0 0 .8217v47.8531a.821.821 0 0 0 .8217.8217h37.3738a.821.821 0 0 0 .8217-.8217V.8218A.821.821 0 0 0 38.1955 0h-9.3676v4.476a.821.821 0 0 1-.8218.8217H11.011a.821.821 0 0 1-.8217-.8217V0Zm9.9477 41.0183a.821.821 0 0 1 .8217-.8217h12.6545a.821.821 0 0 1 .8217.8217.821.821 0 0 1-.8217.8217H20.9587a.821.821 0 0 1-.8217-.8217Zm-5.7327-17.3818-6.4578 6.4578c-.0483.058-.116.1063-.1837.145-.3963.2223-.8894.0967-1.1214-.2997L4.6886 26.556a.8239.8239 0 0 1 .2997-1.1214.824.824 0 0 1 1.1214.2997l1.4211 2.4652 5.7134-5.7134c.319-.319.841-.319 1.1601 0 .319.319.319.8411 0 1.1601v-.0097Zm6.5544-9.7833a.821.821 0 0 1-.8217-.8217.821.821 0 0 1 .8217-.8217h12.6545a.821.821 0 0 1 .8217.8217.821.821 0 0 1-.8217.8217H20.9587Z" fill="#0B7572"/><path fill-rule="evenodd" clip-rule="evenodd" d="M28.0061.029H11.011v4.447h16.9951V.029Z" fill="#0B7572"/></svg>