<svg width="182" height="50" fill="none" xmlns="http://www.w3.org/2000/svg"><path d="M48.0347 1.2656H0v48.0086h48.0347V1.2656Z" fill="#ED1A3A"/><path d="M40.277 6.0473c-1.1038 0-1.9398.732-2.3563 1.6116l-6.0482 9.9519c-.4194.9203-.7255 1.9544-.7255 2.6388 0 .6117.0839 1.152.3082 1.6501l6.5425 15.6212H12.5916c-.9146 0-1.6694-.9181-1.6694-1.7656V8.8467C10.73 5.1681 5.44 5.17 5.3235 8.9623l.1156 28.5586c0 3.1049 2.4016 5.5923 5.4831 5.5923h34.639l-8.4431-21.5923c-.233-.8039-.3368-1.5329.2312-2.4912l5.5858-9.0787c.0787-.1893.1927-.9898.1927-1.2199-.1107-1.6485-1.4032-2.7566-2.8508-2.6838Zm-13.7143.0129c-1.3587.009-2.7159.9472-2.7159 2.7865V28.102c0 2.7961-3.7624 2.566-3.7624 0V8.8467c0-3.6786-5.4447-3.6786-5.4447 0v19.4094c0 4.4388 3.3163 7.39 7.2745 7.39 4.066 0 7.3708-2.9512 7.3708-7.39V8.8467c0-1.8757-1.3636-2.7956-2.7223-2.7865Z" fill="#fff"/><path d="M57.4451 6.9067v12.7019c0 3.1748-.3233 4.9398-2.9097 4.9398-.4835 0-.8068 0-1.2903-.1747v5.4669c.967.3554 1.6136.3554 2.4233.3554 7.2699 0 7.5932-5.4699 7.5932-8.6476v-9.1718h4.2v17.464h5.8135V6.9067h-15.83ZM75.2151 6.9067l7.9165 16.5844-2.9068 6.3495h6.3l9.3698-22.9339h-6.3l-3.3932 9.7019-4.0397-9.7019h-6.9466ZM97.6716 29.8406h5.8164v-9.8795l5.977 9.8795h7.43l-8.237-11.8193 8.077-11.1146h-6.947l-6.3 9.7019V6.9067h-5.8164v22.9339Z" fill="#000"/><path d="M126.428 30.5477c7.753 0 11.306-6 11.306-12.1747 0-5.9971-3.553-11.997-11.306-11.997-7.594 0-11.147 5.9999-11.147 11.997 0 6.1747 3.553 12.1747 11.147 12.1747Zm0-5.4699c-2.587 0-5.17-2.2951-5.17-6.7048 0-4.4097 2.583-6.5271 5.17-6.5271 2.746 0 5.33 2.1174 5.33 6.5271s-2.584 6.7048-5.33 6.7048ZM140.645 6.9071V29.841h5.653l8.077-13.7591V29.841h5.656V6.9072h-5.656l-8.077 13.762V6.9072h-5.653Zm9.853-1.2349c2.423 0 4.846-.8825 5.979-3.53L153.084.7323c-.486 1.765-1.94 1.9398-2.586 1.9398-.484 0-2.1-.1747-2.423-1.9398l-3.391 1.4097c.967 2.6476 3.554 3.5301 5.814 3.5301ZM166.17 6.9067v12.7019c0 3.1748-.326 4.9398-2.91 4.9398-.483 0-.807 0-1.293-.1747v5.4669c.97.3554 1.617.3554 2.423.3554 7.27 0 7.593-5.4699 7.593-8.6476v-9.1718h4.2v17.464H182V6.9067h-15.83ZM53.2922 42.7113h.8185V38.456h4.7796v4.2553h.8184v-8.3417h-.8184v3.4165h-4.7796v-3.4165h-.8185v8.3417ZM61.7908 42.7113h4.4825v-.6699h-3.6641v-3.6669h3.5184v-.6699h-3.5184v-2.6622h3.6641v-.6728h-4.4825v8.3417ZM71.6678 42.7114h.8097v-1.1476h.3408c2.697 0 3.8126-1.5961 3.8126-3.268 0-1.9572-1.4476-3.2533-3.8126-3.2533h-.3408v-1.002h-.8097v1.002h-.3291c-2.3796 0-3.8243 1.2961-3.8243 3.2533 0 1.6719 1.1155 3.268 3.8243 3.268h.3291v1.1476Zm.8097-6.999c2.7058.0349 3.3 1.299 3.3 2.5834 0 2.0039-1.3311 2.5253-3.3 2.5952v-5.1786Zm-.8097 5.1786c-1.9689-.0699-3.3-.5913-3.3-2.5952 0-1.2844.5913-2.5485 3.3-2.5834v5.1786ZM79.5866 42.7113h.7864v-7.6689h2.2194v-.6728h-5.2223v.6728h2.2165v7.6689ZM83.5599 42.7113h.9204l2.2194-3.664h.7049v3.664h.8213v-8.3417h-1.9252c-2.5253 0-2.8893 1.6748-2.8893 2.4146 0 1.4097 1.1039 2.2631 2.4029 2.2165l-2.2544 3.7106Zm3.8447-4.3368H86.222c-.6699 0-2.0009-.0787-2.0009-1.6719 0-1.5466 1.4097-1.6602 2.0796-1.6602h1.1039v3.3321ZM90.3201 42.7113h.8184V38.456h4.7796v4.2553h.8184v-8.3417h-.8184v3.4165h-4.7796v-3.4165h-.8184v8.3417ZM97.9307 42.7115h.8213l1.1476-2.7087h3.5154l1.151 2.7087h.818l-3.743-8.5572-3.7103 8.5572Zm2.2663-3.3669 1.444-3.4136 1.48 3.4136h-2.924ZM106.33 42.7113h.921l2.219-3.664h.705v3.664h.819v-8.3417h-1.923c-2.525 0-2.889 1.6748-2.889 2.4146 0 1.4097 1.104 2.2631 2.4 2.2165l-2.252 3.7106Zm3.845-4.3368h-1.182c-.673 0-2.004-.0787-2.004-1.6719 0-1.5466 1.412-1.6602 2.082-1.6602h1.104v3.3321ZM115.855 42.7113h.819v-4.0397l3.742 4.0397h1.069l-4.039-4.3019 3.972-4.0398h-1.002l-3.742 3.8913v-3.8913h-.819v8.3417ZM126.765 42.9737c2.482 0 4.518-1.7855 4.518-4.4155 0-2.6272-2.036-4.4039-4.518-4.4039-2.446 0-4.482 1.7767-4.482 4.4039 0 2.63 2.036 4.4155 4.482 4.4155Zm0-.7049c-2.036 0-3.629-1.5262-3.629-3.7106 0-2.1845 1.593-3.7427 3.629-3.7427 2.039 0 3.664 1.5582 3.664 3.7427 0 2.1844-1.625 3.7106-3.664 3.7106ZM132.41 42.7114h.787l.772-6.1573 3.072 6.533 3.038-6.533.822 6.1573h.737l-1.148-8.6709-3.449 7.4534-3.483-7.4534-1.148 8.6709ZM143.175 34.3696v8.3417h.818v-7.6689h4.78v7.6689h.819v-8.3417h-6.417ZM150.789 42.7115h.818l1.148-2.7087h3.518l1.148 2.7087h.818l-3.742-8.5572-3.708 8.5572Zm2.263-3.3669 1.445-3.4136 1.479 3.4136h-2.924ZM159.401 42.7113h.819V38.456h4.779v4.2553h.822v-8.3417h-.822v3.4165h-4.779v-3.4165h-.819v8.3417ZM167.9 34.3697v8.7174l5.715-6.9757v6.6h.807v-8.6709l-5.7 6.9291v-6.5999h-.822ZM176.265 42.7113h.92l2.22-3.664h.705v3.664h.821v-8.3417h-1.922c-2.528 0-2.893 1.6748-2.893 2.4146 0 1.4097 1.104 2.2631 2.403 2.2165l-2.254 3.7106Zm3.845-4.3368h-1.183c-.67 0-2.001-.0787-2.001-1.6719 0-1.5466 1.41-1.6602 2.083-1.6602h1.101v3.3321Z" fill="#000"/></svg>