<svg width="44" height="44" fill="none" xmlns="http://www.w3.org/2000/svg"><path fill-rule="evenodd" clip-rule="evenodd" d="M9.539 9.539C12.7274 6.3509 17.136 4.3743 22 4.3743c4.8641 0 9.2727 1.9766 12.4609 5.1649 3.1883 3.1882 5.1649 7.5968 5.1649 12.4609 0 4.8641-1.9766 9.2727-5.1649 12.4609-3.1882 3.1883-7.5968 5.1649-12.4609 5.1649-4.8641 0-9.2727-1.9766-12.461-5.1649C6.3509 31.2727 4.3743 26.8641 4.3743 22c0-4.8641 1.9766-9.2727 5.1649-12.461ZM44 22c0-6.0758-2.4664-11.5758-6.4453-15.5547C33.5758 2.4664 28.0758 0 22 0 15.9242 0 10.4242 2.4664 6.4453 6.4453 2.4664 10.4242 0 15.9242 0 22c0 6.0758 2.4664 11.5758 6.4453 15.5547C10.4242 41.5336 15.9242 44 22 44c6.0758 0 11.5758-2.4664 15.5547-6.4453C41.5336 33.5758 44 28.0758 44 22Z" fill="#0B7572"/><path fill-rule="evenodd" clip-rule="evenodd" d="M16.9125 16.9898c0-1.564.55-2.8273 1.6586-3.7898.7391-.6531 1.8391-1.0484 3.2914-1.1945V10.957h1.2977v1.0485c1.2718.1203 2.2859.4984 3.0336 1.1172.9624.7906 1.5382 1.8906 1.7273 3.2828l-2.2688.3437c-.1289-.8594-.3953-1.5211-.8078-1.9765-.4039-.4555-.9711-.7649-1.6843-.911v6.325c1.1.275 1.839.4985 2.1914.6531.6789.3008 1.2375.6618 1.6672 1.0914.4296.4297.7648.9454.9968 1.5383.2321.593.3524 1.2375.3524 1.925 0 1.5211-.4899 2.7844-1.4524 3.8071-.9625 1.0226-2.2172 1.564-3.7554 1.6328v2.2172h-1.2977v-2.1914c-1.1-.1375-1.9852-.3868-2.6727-.7391-.6875-.3523-1.2804-.9281-1.7789-1.7102-.4984-.7906-.7906-1.7531-.8679-2.8875l2.2086-.4125c.1718 1.1774.4726 2.0453.9023 2.5954.6188.782 1.3578 1.2117 2.2172 1.3062v-6.9781c-.9023-.1719-1.8219-.5242-2.7672-1.0485-.6961-.3953-1.2375-.9281-1.6156-1.6242-.3781-.6875-.5672-1.4695-.5672-2.3547l-.0086-.0172ZM38.1562 22c0-4.4602-1.8046-8.4992-4.7351-11.4211C30.4992 7.657 26.4602 5.8437 22 5.8437c-4.4602 0-8.4992 1.8047-11.4211 4.7352C7.657 13.5008 5.8437 17.5398 5.8437 22c0 4.4602 1.8047 8.4992 4.7352 11.4211C13.5008 36.343 17.5398 38.1562 22 38.1562c4.4602 0 8.4992-1.8046 11.4211-4.7351C36.343 30.4992 38.1562 26.4602 38.1562 22Z" fill="#0B7572"/><path fill-rule="evenodd" clip-rule="evenodd" d="M21.8626 19.9031v-6.0672c-.8508.1289-1.5297.4727-2.0195 1.0227-.4899.55-.7391 1.2031-.7391 1.968 0 .7476.2063 1.375.6273 1.8734.4211.507 1.1258.9109 2.1227 1.2031h.0086ZM26.0993 25.5319c0-.7906-.1976-1.4351-.593-1.9164-.3953-.4812-1.1859-.9195-2.3632-1.2976v6.6773c.8507-.1031 1.5554-.4726 2.114-1.1086.5586-.6359.8336-1.4179.8336-2.3547h.0086Z" fill="#0B7572"/></svg>