<svg width="44" height="50" fill="none" xmlns="http://www.w3.org/2000/svg"><path fill-rule="evenodd" clip-rule="evenodd" d="M4.2868 14.011C1.592 17.6649 0 22.1818 0 27.0728c0 4.8911 1.592 9.408 4.2868 13.0619 2.4455-.9015 5.1691-1.6207 8.0942-2.1194.3452-.0576.6905-.1151 1.0357-.1631-.6713-3.2223-1.0453-6.8857-1.0453-10.7698 0-1.7933.0767-3.5387.2301-5.217l-.7384 1.1987-5.2363-8.2571c-.8055-.2398-1.592-.5083-2.34-.7864v-.0096ZM12.6208 39.4444c-2.6564.4508-5.1403 1.0933-7.3748 1.8893.5754.6809 1.1892 1.3234 1.8509 1.918 3.0497 2.81 6.8858 4.7664 11.1438 5.4952-1.2275-1.2371-2.3208-3.0593-3.2127-5.3417-.4891-1.2468-.9207-2.6373-1.2947-4.143-.374.0575-.748.1151-1.1125.1822ZM15.2003 39.0705c.3453 1.381.7481 2.6565 1.1988 3.8073 1.4961 3.8265 3.4812 6.1953 5.6103 6.1953 2.129 0 4.1142-2.3688 5.6102-6.1953.4508-1.1508.8536-2.4263 1.1988-3.8073a57.7206 57.7206 0 0 0-6.7994-.4028c-2.3496 0-4.6225.1343-6.7995.4028h-.0192ZM13.8386 27.0638c0 3.8265.374 7.4324 1.0358 10.5684a59.294 59.294 0 0 1 7.1351-.4316c2.4551 0 4.843.1535 7.1351.4316.6617-3.1456 1.0357-6.7419 1.0357-10.5684 0-3.8265-.374-7.4324-1.0357-10.5684a59.2955 59.2955 0 0 1-7.1351.4315 58.9221 58.9221 0 0 1-6.1857-.326l-.8919 1.4481-.4891.796c-.3932 2.5414-.6042 5.3129-.6042 8.2284v-.0096ZM16.6676 15.2198c1.7263.1631 3.51.2398 5.3322.2398 2.3496 0 4.6225-.1343 6.7994-.4028-.3452-1.381-.748-2.6565-1.1987-3.8073-1.4961-3.8265-3.4813-6.1953-5.6103-6.1953-.633 0-1.2563.211-1.8605.6138.0288.1822.0479.374.0575.5658v.0384c0 .0191 0 .048.0096.067.0096.096.0192.1919.0192.2878v.3644c0 1.6879-.7001 3.5484-1.5824 4.9773l-1.9852 3.2415.0192.0096ZM28.972 10.7217c.4892 1.2467.9207 2.6373 1.2947 4.143.374-.0576.7481-.1151 1.1125-.1822 2.6565-.4508 5.1403-1.0933 7.3749-1.8893-.5755-.6809-1.1988-1.3235-1.851-1.9277-3.04-2.8003-6.8857-4.7567-11.1342-5.4951 1.2276 1.2371 2.3209 3.0592 3.2127 5.3417l-.0096.0096ZM30.5835 16.2938c.6713 3.2223 1.0453 6.8858 1.0453 10.7698 0 3.8841-.374 7.5475-1.0453 10.7698.3452.048.6905.1055 1.0357.1631 2.9251.4987 5.6487 1.2179 8.0942 2.1194 2.6948-3.6539 4.2868-8.1708 4.2868-13.0619 0-4.891-1.592-9.4079-4.2868-13.0618-2.4455.9015-5.1691 1.6207-8.0942 2.1194-.3452.0576-.6905.1151-1.0357.1631v.0191ZM30.2669 39.2718c-.3644 1.5057-.8056 2.8962-1.2947 4.143-.8918 2.2728-1.9755 4.1046-3.2127 5.3417 4.2581-.7384 8.0942-2.6852 11.1343-5.4952.6521-.6042 1.2754-1.2467 1.8509-1.9276-2.2346-.796-4.7184-1.4289-7.3749-1.8893-.3644-.0671-.7385-.1247-1.1125-.1822l.0096.0096ZM14.0687 8.1037c-.5946.5946-1.4193.9686-2.3304.9686s-1.7358-.3644-2.3304-.9686c-.5946-.5946-.9686-1.4193-.9686-2.3304 0-.911.3644-1.7358.9686-2.3304.5946-.5946 1.4193-.9686 2.3304-.9686s1.7358.3644 2.3304.9686c.5946.5946.9686 1.4193.9686 2.3304 0 .911-.3644 1.7358-.9686 2.3304Zm-.3261 9.0915-.0575.0864.0575-.0864Zm5.0061-10.8273v.0192-.0192ZM6.7802 2.0331c-1.2755 1.2755-2.062 3.0305-2.062 4.9677 0 1.1797.6426 2.8196 1.5824 4.5938.0096.0095.0192.0191.0384.0287.048.048.096.1055.1247.1631l.633.9973c.0095.0096.0095.0192.0191.0288l4.7472 7.4804 1.0165-1.6495c.0192-.0288.0384-.0672.0576-.0959l.7672-1.2468.0575-.0959 3.6731-5.9843c.8151-1.6399 1.3618-3.1264 1.3618-4.21V6.713c0-.0575-.0096-.1342-.0192-.2301 0-.0192 0-.0384-.0096-.0671v-.0192c-.1534-1.688-.9015-3.2032-2.0331-4.3348C15.4593.7864 13.7043 0 11.7671 0 9.8298 0 8.0748.7864 6.7993 2.0619l-.0191-.0288Z" fill="#0B7572"/></svg>