<svg width="103" height="57" fill="none" xmlns="http://www.w3.org/2000/svg"><path fill-rule="evenodd" clip-rule="evenodd" d="m2.349 15.4267.0674 7.5674a22.5135 22.5135 0 0 1 5.7989-10.5684c.235-.2656.503-.4994.771-.7319L2.349 15.4267Zm34.4277 31.3322c.7709 0 1.3742.5667 1.4072 1.301 0 .5666-.3683 1.0672-.8712 1.2667l-11.8671 6.9665c-.3683.2338-.8382.2668-1.2396.0331l-11.298-6.5994-.033-.033L.6396 42.8264a1.1753 1.1753 0 0 1-.6033-1.033l.1004-13.1007L.0033 14.827c-.0342-.4333.2007-.8665.602-1.0991L12.071 7.2607 24.1045.1928c.3695-.2337.8382-.2668 1.2408-.033L36.6421 6.759h.0331c.4368.2338.7048.634.7048 1.1334 0 .7343-.5703 1.334-1.3412 1.334a1.4993 1.4993 0 0 1-.8712-.2668 21.734 21.734 0 0 0-5.1296-1.9668 21.8225 21.8225 0 0 0-5.6986-.6328c-6.0681.1334-11.4987 2.6657-15.3863 6.6997A21.822 21.822 0 0 0 2.819 28.6266a21.707 21.707 0 0 0 6.7375 15.3001 22.08 22.08 0 0 0 15.6543 6.1 21.5848 21.5848 0 0 0 5.6667-.8665 23.4183 23.4183 0 0 0 5.2287-2.2667l.0331-.0331c.1676-.0342.4014-.1003.6375-.1003v-.0012ZM2.4494 33.5944l-.066 7.5674 6.6701 3.733-.1676-.1677c-3.1167-2.9986-5.3964-6.8331-6.4365-11.1327Zm15.7889 16.5315 6.5368 3.8333 6.571-3.8676-.2361.0673c-1.9102.5667-3.9207.8666-5.9324.8996a21.9527 21.9527 0 0 1-6.9393-.9326Zm13.0405-43.766-6.571-3.8344-6.5699 3.8664a24.817 24.817 0 0 1 6.1343-.967 23.9182 23.9182 0 0 1 5.9677.667c.3683.0993.7036.1654 1.0389.2669V6.36Z" fill="#0B7572"/><path fill-rule="evenodd" clip-rule="evenodd" d="M31.3466 16.3261c.5691.2999.771 1.033.4687 1.5997-.301.5666-1.0389.7673-1.6091.4675a11.4584 11.4584 0 0 0-2.7483-1.0672 12.2356 12.2356 0 0 0-2.916-.333 11.3196 11.3196 0 0 0-7.9122 3.4331c-2.0105 2.066-3.1839 4.8994-3.1509 7.9995a11.1975 11.1975 0 0 0 3.4532 7.8673 11.2182 11.2182 0 0 0 8.0455 3.1332c.6706 0 1.2065.5006 1.2065 1.1664 0 .667-.5029 1.2006-1.1734 1.2006a13.7153 13.7153 0 0 1-9.755-3.8014 13.4721 13.4721 0 0 1-4.191-9.5318 13.5569 13.5569 0 0 1 3.8226-9.7007 13.6214 13.6214 0 0 1 9.5862-4.1674 12.7829 12.7829 0 0 1 3.5535.4014c1.1404.3329 2.2797.7661 3.3197 1.3328Z" fill="#0B7572"/><path fill-rule="evenodd" clip-rule="evenodd" d="M15.5571 15.259c.2337-.1653.536-.0992.7036.1334.1676.2337.1003.5336-.1346.7001a14.7126 14.7126 0 0 0-4.7258 5.4341 15.1322 15.1322 0 0 0-1.6091 7.0007c.0673 4.099 1.844 7.7989 4.5924 10.4327l.0331.033a14.7676 14.7676 0 0 0 10.6262 4.1001 14.9936 14.9936 0 0 0 3.8557-.5997c1.2396-.366 2.4473-.8665 3.5866-1.5666.2349-.1334.5702-.0673.7036.1653.1346.2337.0673.5667-.1676.7012a16.1962 16.1962 0 0 1-3.8215 1.667c-1.34.399-2.7153.5997-4.1226.6328a15.9497 15.9497 0 0 1-11.3641-4.4l-.033-.033a15.6286 15.6286 0 0 1-4.8946-11.1328c-.0673-2.6338.5702-5.2015 1.7094-7.5013a16.6804 16.6804 0 0 1 5.0623-5.767Z" fill="#0B7572"/><path fill-rule="evenodd" clip-rule="evenodd" d="M20.0827 28.7601c-.0331 0-.0673-.2338-.0673-.5006 0-.2668.0342-.4994.0673-.4994h4.1556v-4.6006c0-.0331.2361-.0661.5041-.0661.2679 0 .5029.033.5029.0661v4.6006h4.1556c.0354 0 .0684.2326.0684.4994 0 .2668-.0342.5006-.0673.5006h-4.1567v4.5994c0 .0331-.235.0673-.5029.0673-.268 0-.503-.0342-.503-.0673v-4.5994h-4.1567Zm37.039-11.4362H41.8806c-.5785 0-.9244.1901-.9244.9138v18.8961c0 .7237.3471.9138.9244.9138h3.1557c.6162 0 .9232-.1901.9232-.9138v-15.391h7.0822v15.391c0 .7237.3459.9138.9232.9138h3.1568c.5773 0 .9232-.1901.9232-.9138V18.2377c0-.7237-.3459-.9138-.9232-.9138ZM77.366 39.6862c0 .7237.3459.9137.9244.9137h2.6161c.5785 0 .9244-.19.9244-.9137v-5.4094c0-.5714-.1924-.9149-.9244-.9149h-1.5383v-15.123c0-.7249-.3459-.915-.9232-.915H66.2427c-.5773 0-.9232.1901-.9232.9138l-1.0011 13.0287c-.0767 1.1806-.3848 2.0955-2.1167 2.0955-.732 0-.9232.3424-.9232.9149v5.4094c0 .7237.3459.9137.9232.9137h2.6562c.5773 0 .9232-.19.9232-.9137v-1.981H77.405v1.981h-.039Zm-8.1589-8.1542.8075-9.9427h4.5417v12.0004h-6.6194c.7697-.2668 1.1923-.9149 1.2702-2.0577Zm30.8279-4.2288c.269-.1133 2.309-1.1427 2.309-4.3043 0-2.9337-2.231-5.6761-7.3899-5.6761h-8.8897c-.7319 0-.9232.3423-.9232.9137v18.8961c0 .5714.1924.9138.9232.9138h9.3524c4.4271 0 7.5832-2.0566 7.5832-6.0563a5.0553 5.0553 0 0 0-2.964-4.6869h-.001Zm-4.5804 6.2488h-5.3479V21.7428h4.8485c1.6552 0 2.6563.3424 2.6563 1.7531 0 1.2184-.8087 1.8653-2.6563 1.8653h-.4238c-.7319 0-.9232.3436-.9232.915v2.4c0 .5714.1924.915.9232.915h.732c1.5394 0 2.6562.4569 2.6562 1.9042 0 1.4474-.8854 2.0578-2.4638 2.0578l-.0012-.0012Z" fill="#0B7572"/></svg>