<svg width="24" height="32" fill="none" xmlns="http://www.w3.org/2000/svg"><path d="M11.0018 6.6993 7.6378.8719C6.7821-.6097 5.2998.2456 5.2998.2456L3.2248 1.444l5.0757 8.791 2.075-1.1984c1.482-.8553.6263-2.3373.6263-2.3373Zm8.6224 24.8374-5.0757-8.7914c-1.2533.7227-2.4024-.6133-3.459-2.0463-.6974-.9534-1.332-1.9437-1.8977-2.9197-.5623-.9783-1.1027-2.0227-1.5797-3.1037-.7126-1.6313-1.2503-3.3216-.0426-4.019L2.4938 1.866C.7051 2.8985-2.8529 8.3972 4.2208 20.649l.0003.0006c7.0954 12.2891 13.6151 11.9201 15.4031 10.8871Zm3.4326-3.958-3.364-5.8267c-.856-1.482-2.338-.6264-2.338-.6264l-2.0753 1.1981 5.076 8.7913 2.075-1.198c1.482-.856.6263-2.3383.6263-2.3383Z" fill="#0B7572"/></svg>