<svg width="67" height="39" fill="none" xmlns="http://www.w3.org/2000/svg"><path d="m21.7563 30.3559 20.5802 8.5996V18.0078l-20.5802-7.644v19.9921ZM58.1389 19.404l-5.733 2.058v-5.8065l-7.5706 2.646v20.6537l21.3152-8.5996V10.731l-8.0116 2.8665v5.8065Zm-6.8355 14.8471-.882.3675v-4.6305l.882-.294v4.557Zm1.5435-.588-.882.3675v-4.6305l.882-.294v4.557Zm3.087-1.2495-.882.294v-4.557l.882-.294v4.557Zm1.5435-.6615-.882.3675v-4.4835l.882-.294v4.41Zm3.087-5.6595.8821-.294v4.3365l-.8821.3675v-4.41Zm-1.764.6615.882-.294v4.41l-.882.3675v-4.4835ZM58.1391 10.7311l8.0116-2.94L43.9535 0 36.824 2.499l21.3151 8.0851v.147ZM30.5029 4.7041l-8.7466 3.087 22.1972 8.0851 8.3791-3.0135-21.8297-8.1586ZM0 28.4446h18.2281v-3.6751H1.6905L0 28.4446ZM3.0137 21.9765h15.2146v-3.675H4.7042l-1.6905 3.675ZM6.0271 15.2883v.294h12.2011v-3.6751H7.6442L6.027 15.2883Z" fill="#0B7572"/></svg>