<svg width="28" height="28" fill="none" xmlns="http://www.w3.org/2000/svg"><path d="M27.009 16.3375c-.0245-.0446-.0091.0493 0 0a13.3686 13.3686 0 0 0 .2202-2.4027c0-1.7892-.3493-3.5247-1.0397-5.1589-.6662-1.5782-1.6191-2.9957-2.834-4.2127-1.213-1.2171-2.6281-2.1722-4.2019-2.8398-1.6295-.6913-3.361-1.0416-5.1457-1.0416-.8412 0-1.6837.0792-2.5037.2371-.0017.0004-.0062.0009-.0062.0009C10.373.3202 9.108 0 7.8273 0 5.7366 0 3.771.8161 2.2926 2.2985.8145 3.7803 0 5.7509 0 7.8465c0 1.334.3425 2.6455.9847 3.804-.1302.7509-.199 1.5182-.199 2.2843 0 1.7895.3494 3.5249 1.0398 5.1592.6652 1.579 1.6185 2.9954 2.8323 4.2126 1.215 1.217 2.628 2.1736 4.2035 2.8395 1.6296.6926 3.3617 1.0431 5.1464 1.0431.7769 0 1.5555-.0711 2.3157-.2063A7.8045 7.8045 0 0 0 20.174 28c2.0903 0 4.0551-.8146 5.5336-2.2976C27.1862 24.2214 28 22.2504 28 20.1548a7.8628 7.8628 0 0 0-.991-3.8173Zm-12.9485 5.7142c-4.6971 0-6.7987-2.3147-6.7987-4.0498 0-.8896.6554-1.5135 1.5586-1.5135 2.0103 0 1.4897 2.8933 5.2401 2.8933 1.92 0 2.9801-1.045 2.9801-2.1144 0-.6432-.3165-1.3562-1.5808-1.6685l-4.1778-1.0455c-3.3648-.8458-3.9752-2.6693-3.9752-4.3832 0-3.5587 3.3426-4.8947 6.4815-4.8947 2.8916 0 6.3001 1.6019 6.3001 3.7368 0 .9148-.7902 1.4467-1.6931 1.4467-1.7154 0-1.4-2.3802-4.8555-2.3802-1.7147 0-2.6645.7784-2.6645 1.8921 0 1.1119 1.3544 1.467 2.5301 1.7354l3.0925.6882c3.3873.7565 4.2461 2.7389 4.2461 4.6062.0003 2.8917-2.2142 5.0511-6.6835 5.0511Z" fill="#0B7572"/></svg>