<svg width="28" height="18" fill="none" xmlns="http://www.w3.org/2000/svg"><path d="M2.0488 0C1.646 0 1.2764.121.9604.3201l12.1219 10.2546c.5549.47 1.3028.4699 1.8567 0L27.0396.3201C26.7236.121 26.3539 0 25.9512 0H2.0488ZM.1174 1.3765C.0444 1.5875 0 1.8123 0 2.0488v13.6585c0 .4114.1236.7895.3308 1.1098l8.6753-7.907L.1174 1.3765Zm27.7652 0-8.8674 7.5229 8.654 7.9177c.2072-.3203.3308-.6984.3308-1.1098V2.0488c0-.2365-.0443-.4613-.1174-.6723Zm-9.9131 8.4192-2.1555 1.8247c-1.0425.8845-2.5747.8832-3.6173 0l-2.1449-1.814-8.6112 7.8537c.1926.0597.3954.096.6082.096h23.9024c.2128 0 .4155-.0363.6082-.096l-8.5899-7.8644Z" fill="#0B7572"/></svg>