<svg width="23" height="23" fill="none" xmlns="http://www.w3.org/2000/svg"><path d="M22.9943 23.0001v-.001H23v-8.2974c0-4.0591-.8827-7.186-5.6758-7.186-2.3042 0-3.8505 1.252-4.4817 2.4387h-.0667V7.8947H8.2312v15.1044h4.7322V15.52c0-1.9693.377-3.8735 2.8402-3.8735 2.4271 0 2.4632 2.2474 2.4632 3.9998v7.3538h4.7275ZM.3772 7.8948h4.7379v15.1044H.3772V7.8948ZM2.744 0C1.2293 0 0 1.217 0 2.7168S1.2292 5.459 2.744 5.459c1.515 0 2.7442-1.2424 2.7442-2.7422C5.4872 1.217 4.258 0 2.744 0Z" fill="#BFBFC7"/></svg>