<svg width="79" height="97" fill="none" xmlns="http://www.w3.org/2000/svg"><path fill-rule="evenodd" clip-rule="evenodd" d="M18.9266 87.7814c1.5663 0 2.8372 1.4266 2.8372 3.1841 0 1.7574-1.2709 3.1841-2.8372 3.1841-1.5663 0-2.8372-1.4267-2.8372-3.1841 0-1.7575 1.2709-3.1841 2.8372-3.1841Zm0-2.4258c3.1206 0 5.6513 2.5123 5.6513 5.6099 0 3.0976-2.5307 5.6099-5.6513 5.6099s-5.6513-2.5123-5.6513-5.6099c0-3.0976 2.5307-5.6099 5.6513-5.6099Zm13.2165 2.4258c.9684 0 1.8794.4338 2.3914 1.2655l1.8564-1.7804c-1.0359-1.1711-2.5549-1.9109-4.2478-1.9109-3.1206 0-5.6513 2.5123-5.6513 5.6099 0 3.0976 2.5307 5.6099 5.6513 5.6099 1.7321 0 3.2822-.7745 4.3189-1.9931l-1.929-1.6517c-.515.8053-1.4398 1.219-2.3899 1.219-1.5663 0-2.8372-1.4267-2.8372-3.1841 0-1.7575 1.2709-3.1841 2.8372-3.1841Zm18.6803 3.9204h8.1174a5.8429 5.8429 0 0 0 .0466-.7363c0-3.0976-2.441-5.6099-5.4509-5.6099s-5.4509 2.5123-5.4509 5.6099c0 3.0976 2.441 5.6099 5.4509 5.6099 1.7165 0 3.6902-.2914 4.6894-1.5681l-1.2411-1.7962c-.6225.895-2.2696 1.1443-3.3206 1.1443-1.3892 0-2.5518-1.1361-2.8407-2.6536h-.0001Zm.0619-1.744c.3685-1.3796 1.4737-2.3822 2.7789-2.3822 1.3051 0 2.4104 1.0026 2.779 2.3822h-5.5579Zm-12.7842-4.3459h8.7358v2.4071h-3.0192v8.3h-2.6975v-8.3h-3.0191v-2.4071Zm25.3513 5.1873-3.6773-5.1873h3.2485l2.2009 3.3145 2.2009-3.3145h3.2484l-3.6772 5.1873 3.8438 5.5198h-3.1392l-2.4767-3.5838-2.4767 3.5838h-3.1392l3.8438-5.5198Zm1.7721-1.3712-.0127.0211.0127.0002.0126-.0002-.0126-.0211ZM6.7132 84.2056c1.1716 0 2.1217.9501 2.1217 2.1217 0 1.1716-.9501 2.1217-2.1217 2.1217h-3.576v-4.2434h3.576ZM.1741 81.6861h7.149c2.563 0 4.6413 2.0784 4.6413 4.6411 0 2.563-2.0784 4.6413-4.6413 4.6413h-4.186v5.3505H.1741V81.6861ZM9.0468 9.0468h23.6544L23.6544 0H0v23.6544l9.0468 9.0468V9.0468Zm28.5385 0h23.6544v23.6544l9.0468-9.0468V0H46.6321l-9.0468 9.0468Zm23.6544 28.5385v23.6544H37.5853l9.0468 9.0468h23.6544V46.6321l-9.0468-9.0468ZM32.7012 61.2397H9.0468V37.5853L0 46.6321v23.6544h23.6544l9.0468-9.0468Z" fill="#000"/><path d="M72.8112.3826h2.2633v.488h-.8876v2.7099h-.4882v-2.71h-.8875V.3827Zm4.296 2.3808 1.06-2.3806h.5434v3.1976h-.4882v-2.101l-.9384 2.101h-.3536l-.9385-2.101v2.101h-.4881V.3828h.5433l1.0601 2.3806Z" fill="#000"/></svg>