<svg width="33" height="19" fill="none" xmlns="http://www.w3.org/2000/svg"><path d="M27.3841 10.8951c-.5335-.665-.3809-.9608 0-1.5552.0068-.0068 4.4111-6.0135 4.8649-8.0506l.0027-.0014C32.4772.5456 32.2517 0 31.1613 0h-3.6081c-.9185 0-1.342.4682-1.5689.992 0 0-1.8371 4.3402-4.4359 7.1536-.8388.8129-1.2266 1.0735-1.6845 1.0735-.2255 0-.5761-.2606-.5761-1.003V1.288C19.2878.3976 19.0307 0 18.2703 0h-5.6735c-.5761 0-.9185.4153-.9185.802 0 .8442 1.2994 1.0383 1.4342 3.4133v5.153c0 1.1292-.2077 1.3368-.6683 1.3368-1.2266 0-4.2035-4.3577-5.9677-9.3452C6.1203.3922 5.7725.0014 4.847.0014H1.2375C.2076.0014 0 .4696 0 .9934c0 .9256 1.2265 5.5277 5.7037 11.6077C8.6875 16.7512 12.8897 19 16.7123 19c2.2977 0 2.5782-.4994 2.5782-1.3585 0-3.9656-.2076-4.3401.9433-4.3401.5335 0 1.4521.2605 3.5971 2.2623C26.2827 17.9374 26.6856 19 28.0578 19h3.6082c1.0285 0 1.5496-.4994 1.2499-1.4847-.6862-2.0724-5.3228-6.3352-5.5318-6.6202Z" fill="#BFBFC7"/></svg>